<?xml version="1.0" encoding="UTF-8"?>
<svg width="38px" height="43px" viewBox="0 0 38 43" version="1.1" xmlns="http://www.w3.org/2000/svg" xmlns:xlink="http://www.w3.org/1999/xlink">
    <!-- Generator: Sketch 54.1 (76490) - https://sketchapp.com -->
    <title>编组 2</title>
    <desc>Created with Sketch.</desc>
    <g id="赔率" stroke="none" stroke-width="1" fill="none" fill-rule="evenodd">
        <g id="数据库_比分分布" transform="translate(-320.000000, -9.000000)">
            <g id="编组-5" transform="translate(300.000000, 0.000000)">
                <g id="编组-2" transform="translate(20.000000, 9.000000)">
                    <path d="M37.7523069,9.06604436 L37.7523069,15.2258547 C37.7523069,16.1618061 36.7824704,16.78466 35.9297409,16.3956746 L20.1824453,9.2192521 C19.5032252,8.90997292 18.7226717,8.90997292 18.0434516,9.2192521 L15.0947472,10.5637574 C14.7515522,10.7198289 14.3576906,10.718397 14.0159296,10.5594619 L7.32458365,7.44614691 C6.32797987,6.98270542 6.33371572,5.56565312 7.33366541,5.11032544 L9.24848302,4.23832997 L18.0434516,0.231541799 C18.7226717,-0.0772601006 19.5027472,-0.0772601006 20.1819673,0.232019081 L28.9735899,4.23832997 L36.9989987,7.89622449 C37.4578667,8.10479702 37.7523069,8.56203384 37.7523069,9.06604436" id="Fill-5" fill="#0037AF"></path>
                    <path d="M37.7523069,26.2449756 L37.7523069,32.408127 C37.7523069,33.3445556 36.7824704,33.9669322 35.9297409,33.5779468 L0.753212579,17.5469759 C0.294344654,17.3384034 0.000382389937,16.8811665 0.000382389937,16.377156 L0.000382389937,10.2173457 C0.000382389937,9.28091702 0.969740881,8.6585404 1.82247044,9.04752579 L36.9989987,25.0751557 C37.4578667,25.2842056 37.7523069,25.7414424 37.7523069,26.2449756" id="Fill-7" fill="#E1243B"></path>
                    <path d="M30.5199748,35.0634892 C31.4754717,35.5345672 31.4773836,36.8948229 30.5228428,37.3682873 L28.3738113,38.4354914 L20.0286289,42.5768733 C19.3331572,42.9219487 18.5191447,42.9353126 17.8122013,42.6131468 L9.26865409,38.7189973 L0.753308176,34.8391663 C0.294440252,34.6301165 -1.42108547e-14,34.1728797 -1.42108547e-14,33.6688692 L-1.42108547e-14,27.5057178 C-1.42108547e-14,26.5697665 0.969836478,25.9469126 1.82304403,26.335898 L17.5961509,33.5228207 C18.3026164,33.8449865 19.1171069,33.8316226 19.8125786,33.4860699 L22.9816352,31.9124689 C23.3420377,31.7334879 23.7650566,31.7330106 24.1254591,31.9115143 L30.5199748,35.0634892 Z" id="Fill-9" fill="#0037AF"></path>
                </g>
            </g>
        </g>
    </g>
</svg>